<?xml version="1.0" encoding="UTF-8"?>
<svg version="1.1" xmlns="http://www.w3.org/2000/svg" width="180" height="180">
<path d="M0 0 C19.29883651 14.78808588 32.82122023 35.00637473 36.94140625 59.25390625 C37.13470593 63.50487475 37.12721766 67.7539441 37.12670898 72.0090332 C37.12888857 74.04985634 37.14705388 76.09013213 37.16601562 78.13085938 C37.17597179 84.85127141 37.01908844 90.84019165 34.94140625 97.25390625 C35.60140625 97.25390625 36.26140625 97.25390625 36.94140625 97.25390625 C36.5587413 106.02041247 34.20286027 113.74063364 31.44091797 121.99755859 C30.68590984 124.27045278 29.96369582 126.55221957 29.2421875 128.8359375 C28.76367155 130.28840522 28.28327048 131.74025355 27.80078125 133.19140625 C27.58911316 133.87154785 27.37744507 134.55168945 27.15936279 135.25244141 C26.0676073 138.41878613 25.36408452 139.99940455 22.45019531 141.75390625 C19.1246716 142.41668093 17.10176244 141.37319907 13.94140625 140.25390625 C10.02146806 140.63345582 8.09780654 141.64651742 5.31640625 144.37890625 C-10.22634742 158.60941993 -29.81854042 165.00382305 -50.56176758 164.83032227 C-52.85971948 164.81647479 -55.15356153 164.85065227 -57.45117188 164.88867188 C-77.62325072 164.9946444 -95.88230552 157.93411276 -111.203125 144.8203125 C-112.98138174 143.19449143 -112.98138174 143.19449143 -115.05859375 142.25390625 C-116.73514104 142.5333308 -118.40467529 142.86218872 -120.05859375 143.25390625 C-120.56648438 142.22652344 -121.074375 141.19914063 -121.59765625 140.140625 C-128.69521387 124.56691907 -128.69521387 124.56691907 -139.05859375 111.25390625 C-142.12990995 107.06210988 -143.65730239 103.52254225 -143.05859375 98.25390625 C-142.72859375 97.26390625 -142.39859375 96.27390625 -142.05859375 95.25390625 C-142.36108447 93.24900963 -142.69844772 91.24925232 -143.05859375 89.25390625 C-143.91216512 74.72200082 -144.44613707 59.96909765 -139.05859375 46.25390625 C-138.81189941 45.60566895 -138.56520508 44.95743164 -138.31103516 44.28955078 C-128.71539561 19.40214924 -111.32155871 1.27120611 -87.05859375 -9.74609375 C-83.10911619 -11.319349 -79.16716414 -12.65694517 -75.05859375 -13.74609375 C-74.43380127 -13.92124512 -73.80900879 -14.09639648 -73.1652832 -14.27685547 C-48.33218272 -20.62312371 -20.72697022 -14.54475807 0 0 Z " fill="#FB1B1B" transform="translate(143.05859375,15.74609375)"/>
<path d="M0 0 C3.16495103 1.19422842 5.47341679 2.77390849 8 5 C8.928125 5.78375 9.85625 6.5675 10.8125 7.375 C14.91496538 12.29795846 16.62592651 17.24087619 16.4296875 23.5859375 C15.48104724 28.91557094 12.82490649 34.17509351 9 38 C8.3574765 40.06874034 8.3574765 40.06874034 8 42 C8.99 42 9.98 42 11 42 C11 41.01 11 40.02 11 39 C13.3546251 37.82268745 14.76282105 38 17.375 38 C18.90125 37.67 20.4275 37.34 22 37 C23.32 34.03 24.64 31.06 26 28 C41.18 28 56.36 28 72 28 C72 32.95 72 37.9 72 43 C74.43387753 44.21693876 76.41838846 44.31959896 79.125 44.5625 C80.75 44.70833333 82.375 44.85416667 84 45 C83.61733505 53.76650622 81.26145402 61.48672739 78.49951172 69.74365234 C77.74450359 72.01654653 77.02228957 74.29831332 76.30078125 76.58203125 C75.8222653 78.03449897 75.34186423 79.4863473 74.859375 80.9375 C74.64770691 81.6176416 74.43603882 82.2977832 74.21795654 82.99853516 C73.12620105 86.16487988 72.42267827 87.7454983 69.50878906 89.5 C66.18326535 90.16277468 64.16035619 89.11929282 61 88 C57.08006181 88.37954957 55.15640029 89.39261117 52.375 92.125 C36.83224633 106.35551368 17.24005333 112.7499168 -3.50317383 112.57641602 C-5.80112573 112.56256854 -8.09496778 112.59674602 -10.39257812 112.63476562 C-30.56465697 112.74073815 -48.82371177 105.68020651 -64.14453125 92.56640625 C-65.92278799 90.94058518 -65.92278799 90.94058518 -68 90 C-69.67654729 90.27942455 -71.34608154 90.60828247 -73 91 C-73.50789063 89.97261719 -74.01578125 88.94523437 -74.5390625 87.88671875 C-81.63662012 72.31301282 -81.63662012 72.31301282 -92 59 C-95.08029977 54.79594266 -96.5156702 51.28561955 -96 46 C-94.58957044 45.15615325 -93.17135868 44.32530504 -91.75 43.5 C-90.96109375 43.0359375 -90.1721875 42.571875 -89.359375 42.09375 C-87 41 -87 41 -83 41 C-83.33 36.71 -83.66 32.42 -84 28 C-68.82 28 -53.64 28 -38 28 C-37.34 30.97 -36.68 33.94 -36 37 C-32.7 36.34 -29.4 35.68 -26 35 C-26.48339844 33.74703125 -26.48339844 33.74703125 -26.9765625 32.46875 C-28.0971467 28.67073942 -28.33480664 25.45502687 -28.375 21.5 C-28.40335937 20.2315625 -28.43171875 18.963125 -28.4609375 17.65625 C-27.65324279 11.24945125 -23.66419519 7.20915176 -19 3 C-13.11669547 -1.24791044 -6.99281654 -0.84641558 0 0 Z " fill="#4775A8" transform="translate(96,68)"/>
<path d="M0 0 C19.29883651 14.78808588 32.82122023 35.00637473 36.94140625 59.25390625 C37.13470593 63.50487475 37.12721766 67.7539441 37.12670898 72.0090332 C37.12888857 74.04985634 37.14705388 76.09013213 37.16601562 78.13085938 C37.17597179 84.85127141 37.01908844 90.84019165 34.94140625 97.25390625 C33.68328125 97.29515625 32.42515625 97.33640625 31.12890625 97.37890625 C30.42121094 97.40210937 29.71351563 97.4253125 28.984375 97.44921875 C26.94140625 97.25390625 26.94140625 97.25390625 23.94140625 95.25390625 C24.27140625 90.30390625 24.60140625 85.35390625 24.94140625 80.25390625 C9.76140625 80.25390625 -5.41859375 80.25390625 -21.05859375 80.25390625 C-21.38859375 82.23390625 -21.71859375 84.21390625 -22.05859375 86.25390625 C-23.265625 88.58203125 -23.265625 88.58203125 -25.05859375 90.25390625 C-27.7578125 90.86328125 -27.7578125 90.86328125 -30.74609375 91.00390625 C-31.73996094 91.060625 -32.73382813 91.11734375 -33.7578125 91.17578125 C-34.51707031 91.2015625 -35.27632813 91.22734375 -36.05859375 91.25390625 C-36.05859375 92.24390625 -36.05859375 93.23390625 -36.05859375 94.25390625 C-37.04859375 94.25390625 -38.03859375 94.25390625 -39.05859375 94.25390625 C-38.63674784 89.75421653 -36.66622637 86.78391545 -34.21484375 83.12109375 C-31.52068584 78.7703928 -31.44320049 74.20902084 -32.05859375 69.25390625 C-32.93874306 66.99395956 -33.96506276 64.97716264 -35.18359375 62.8828125 C-36.05859375 61.25390625 -36.05859375 61.25390625 -36.05859375 59.25390625 C-36.83203125 58.88265625 -36.83203125 58.88265625 -37.62109375 58.50390625 C-40.05859375 57.25390625 -40.05859375 57.25390625 -42.93359375 55.12890625 C-48.41982104 51.9633174 -54.96131597 52.49448483 -61.05859375 53.25390625 C-63.60738411 54.31934655 -64.97012952 55.3974936 -67.05859375 57.25390625 C-67.71859375 57.25390625 -68.37859375 57.25390625 -69.05859375 57.25390625 C-69.32671875 57.81078125 -69.59484375 58.36765625 -69.87109375 58.94140625 C-71.05859375 61.25390625 -71.05859375 61.25390625 -72.6171875 63.43359375 C-74.46140499 67.04206266 -74.38984807 69.65712914 -74.30859375 73.69140625 C-74.28539063 75.60759766 -74.28539063 75.60759766 -74.26171875 77.5625 C-74.07960465 80.87207357 -73.68180696 84.00214057 -73.05859375 87.25390625 C-76.56636159 88.85745726 -79.20214254 89.47427489 -83.05859375 89.25390625 C-85.11023612 85.79175976 -85.05859375 84.6600139 -85.05859375 80.25390625 C-100.23859375 80.25390625 -115.41859375 80.25390625 -131.05859375 80.25390625 C-130.72859375 84.54390625 -130.39859375 88.83390625 -130.05859375 93.25390625 C-137.68359375 96.12890625 -137.68359375 96.12890625 -141.05859375 97.25390625 C-145.88806538 81.66437184 -145.01057897 61.40601021 -139.05859375 46.25390625 C-138.81189941 45.60566895 -138.56520508 44.95743164 -138.31103516 44.28955078 C-128.71539561 19.40214924 -111.32155871 1.27120611 -87.05859375 -9.74609375 C-83.10911619 -11.319349 -79.16716414 -12.65694517 -75.05859375 -13.74609375 C-74.43380127 -13.92124512 -73.80900879 -14.09639648 -73.1652832 -14.27685547 C-48.33218272 -20.62312371 -20.72697022 -14.54475807 0 0 Z M-103.05859375 14.25390625 C-103.85910156 14.88683594 -104.65960938 15.51976563 -105.484375 16.171875 C-119.68914376 27.94659001 -127.38146319 44.47458883 -131.05859375 62.25390625 C-131.05859375 64.23390625 -131.05859375 66.21390625 -131.05859375 68.25390625 C-115.87859375 68.25390625 -100.69859375 68.25390625 -85.05859375 68.25390625 C-84.39859375 65.61390625 -83.73859375 62.97390625 -83.05859375 60.25390625 C-79.18559184 52.2365456 -73.08517022 46.61171008 -64.80859375 43.37890625 C-55.13659975 40.603609 -45.99909347 41.84564753 -37.05859375 46.25390625 C-28.15311926 51.19281758 -24.2025042 58.82217489 -21.05859375 68.25390625 C-6.20859375 68.25390625 8.64140625 68.25390625 23.94140625 68.25390625 C22.75599174 50.47268866 19.29839385 40.22278448 8.94140625 26.25390625 C8.17828125 25.20203125 7.41515625 24.15015625 6.62890625 23.06640625 C2.42369516 18.66560394 -2.23406506 14.95396796 -7.05859375 11.25390625 C-8.41984375 10.19236328 -8.41984375 10.19236328 -9.80859375 9.109375 C-20.43750997 1.38864835 -32.99481941 -2.80957606 -46.05859375 -3.74609375 C-46.753479 -3.79660889 -47.44836426 -3.84712402 -48.16430664 -3.89916992 C-68.60060301 -5.08294317 -87.40304475 0.87049002 -103.05859375 14.25390625 Z " fill="#050303" transform="translate(143.05859375,15.74609375)"/>
<path d="M0 0 C3.91288936 0.84409679 6.52891077 3.5432161 9.13671875 6.4609375 C10.64594211 9.47938422 10.47078922 12.61428535 10.66015625 15.953125 C11.20951234 18.84399886 12.34809426 20.17494149 14.13671875 22.4609375 C14.13671875 23.4509375 14.13671875 24.4409375 14.13671875 25.4609375 C8.38671875 28.4609375 8.38671875 28.4609375 6.13671875 28.4609375 C6.13671875 29.1209375 6.13671875 29.7809375 6.13671875 30.4609375 C8.11671875 30.1309375 10.09671875 29.8009375 12.13671875 29.4609375 C12.13671875 30.4509375 12.13671875 31.4409375 12.13671875 32.4609375 C13.12671875 32.4609375 14.11671875 32.4609375 15.13671875 32.4609375 C15.13671875 31.4709375 15.13671875 30.4809375 15.13671875 29.4609375 C17.49134385 28.28362495 18.8995398 28.4609375 21.51171875 28.4609375 C23.03796875 28.1309375 24.56421875 27.8009375 26.13671875 27.4609375 C27.45671875 24.4909375 28.77671875 21.5209375 30.13671875 18.4609375 C45.31671875 18.4609375 60.49671875 18.4609375 76.13671875 18.4609375 C76.13671875 23.4109375 76.13671875 28.3609375 76.13671875 33.4609375 C78.57059628 34.67787626 80.55510721 34.78053646 83.26171875 35.0234375 C84.88671875 35.16927083 86.51171875 35.31510417 88.13671875 35.4609375 C87.7540538 44.22744372 85.39817277 51.94766489 82.63623047 60.20458984 C81.88122234 62.47748403 81.15900832 64.75925082 80.4375 67.04296875 C79.95898405 68.49543647 79.47858298 69.9472848 78.99609375 71.3984375 C78.78442566 72.0785791 78.57275757 72.7587207 78.35467529 73.45947266 C77.2629198 76.62581738 76.55939702 78.2064358 73.64550781 79.9609375 C70.3199841 80.62371218 68.29707494 79.58023032 65.13671875 78.4609375 C61.21678056 78.84048707 59.29311904 79.85354867 56.51171875 82.5859375 C40.96896508 96.81645118 21.37677208 103.2108543 0.63354492 103.03735352 C-1.66440698 103.02350604 -3.95824903 103.05768352 -6.25585938 103.09570312 C-26.54291412 103.20227967 -44.43281152 95.97285429 -60.10546875 83.22265625 C-61.86328125 81.4609375 -61.86328125 81.4609375 -62.86328125 78.4609375 C-62.22519531 78.26757812 -61.58710937 78.07421875 -60.9296875 77.875 C-59.69025391 77.48441406 -59.69025391 77.48441406 -58.42578125 77.0859375 C-57.60207031 76.83070313 -56.77835938 76.57546875 -55.9296875 76.3125 C-53.68530109 75.65211523 -53.68530109 75.65211523 -52.86328125 73.4609375 C-49.29387854 75.13355616 -46.05780495 77.21624164 -42.73828125 79.3359375 C-35.08641858 84.1124375 -27.63454561 87.3456466 -18.7734375 89.06640625 C-16.86328125 89.4609375 -16.86328125 89.4609375 -13.86328125 90.4609375 C9.69748711 91.45224184 32.02780183 87.69189266 50.13671875 71.4609375 C51.01615279 68.82632802 51.01615279 68.82632802 51.13671875 66.4609375 C50.14671875 66.4609375 49.15671875 66.4609375 48.13671875 66.4609375 C48.13671875 67.7809375 48.13671875 69.1009375 48.13671875 70.4609375 C45.35866101 71.84996637 43.34019696 71.36443064 40.26171875 71.0859375 C39.21242188 70.99570313 38.163125 70.90546875 37.08203125 70.8125 C34.67241613 70.52488016 32.46441149 70.12438616 30.13671875 69.4609375 C30.13671875 68.1409375 30.13671875 66.8209375 30.13671875 65.4609375 C28.86054687 65.32816406 27.584375 65.19539063 26.26953125 65.05859375 C24.60023879 64.88041085 22.93096911 64.70201436 21.26171875 64.5234375 C20.41996094 64.43642578 19.57820313 64.34941406 18.7109375 64.25976562 C17.90527344 64.17275391 17.09960938 64.08574219 16.26953125 63.99609375 C15.52590332 63.9175415 14.78227539 63.83898926 14.01611328 63.75805664 C12.13671875 63.4609375 12.13671875 63.4609375 10.13671875 62.4609375 C10.46671875 60.8109375 10.79671875 59.1609375 11.13671875 57.4609375 C8.82671875 58.1209375 6.51671875 58.7809375 4.13671875 59.4609375 C4.13671875 63.0909375 4.13671875 66.7209375 4.13671875 70.4609375 C-0.28081257 71.56532033 -0.66573823 71.42040361 -4.41015625 69.37109375 C-5.67666016 68.68950195 -5.67666016 68.68950195 -6.96875 67.99414062 C-7.84144531 67.50880859 -8.71414062 67.02347656 -9.61328125 66.5234375 C-10.50144531 66.04197266 -11.38960937 65.56050781 -12.3046875 65.06445312 C-14.49702933 63.87398794 -16.68260509 62.67260024 -18.86328125 61.4609375 C-18.86328125 60.4709375 -18.86328125 59.4809375 -18.86328125 58.4609375 C-13.44260496 56.93480864 -10.2156644 58.27814475 -5.48828125 60.8984375 C-4.84761719 61.23681641 -4.20695312 61.57519531 -3.546875 61.92382812 C-1.9779565 62.75512076 -0.41949009 63.60608853 1.13671875 64.4609375 C1.13671875 62.1509375 1.13671875 59.8409375 1.13671875 57.4609375 C-1.17328125 57.1309375 -3.48328125 56.8009375 -5.86328125 56.4609375 C-3.31991602 53.91757227 -2.26153448 54.21352049 1.26171875 54.0859375 C6.80518106 53.69884461 10.36692344 52.25081777 15.13671875 49.4609375 C14.14671875 48.1409375 13.15671875 46.8209375 12.13671875 45.4609375 C11.53859375 45.7909375 10.94046875 46.1209375 10.32421875 46.4609375 C8.13671875 47.4609375 8.13671875 47.4609375 5.13671875 47.4609375 C6.69172856 43.64409524 9.1726737 41.26898018 12.13671875 38.4609375 C11.80671875 37.4709375 11.47671875 36.4809375 11.13671875 35.4609375 C7.32284105 33.55399865 2.51046015 34.57291782 -1.67578125 34.71875 C-2.72765625 34.63367188 -3.77953125 34.54859375 -4.86328125 34.4609375 C-6.86328125 31.4609375 -6.86328125 31.4609375 -6.61328125 29.4609375 C-5.86328125 27.4609375 -5.86328125 27.4609375 -3.86328125 24.4609375 C-4.79140625 24.0690625 -5.71953125 23.6771875 -6.67578125 23.2734375 C-10.26157612 21.23445611 -11.37121656 20.2739917 -12.86328125 16.4609375 C-13.54614495 11.82420867 -13.54578239 8.56706004 -11.05078125 4.5234375 C-7.46170353 1.13944994 -4.99732612 -0.09237202 0 0 Z " fill="#4171A5" transform="translate(91.86328125,77.5390625)"/>
<path d="M0 0 C-0.33 1.65 -0.66 3.3 -1 5 C0.10859375 5.13277344 1.2171875 5.26554688 2.359375 5.40234375 C3.8229327 5.58059757 5.28647349 5.75899028 6.75 5.9375 C7.47960937 6.02451172 8.20921875 6.11152344 8.9609375 6.20117188 C12.37584442 6.62027409 15.67603543 7.117274 19 8 C19 9.32 19 10.64 19 12 C24.94 12.33 30.88 12.66 37 13 C37 11.68 37 10.36 37 9 C37.99 9 38.98 9 40 9 C40.33984375 11.21875 40.33984375 11.21875 40 14 C37.69140625 16.28125 37.69140625 16.28125 34.5625 18.5 C34.01335937 18.89018311 33.46421875 19.28036621 32.8984375 19.68237305 C17.85007866 30.2166627 2.26211542 34.10374986 -16 34.25 C-16.813479 34.2593457 -17.62695801 34.26869141 -18.46508789 34.27832031 C-22.81984016 34.25476887 -25.99373051 33.85828726 -30 32 C-31.47387803 31.7389733 -32.95383892 31.5104929 -34.4375 31.3125 C-45.61326125 29.17742919 -57.24964792 22.44887641 -64.80078125 13.98046875 C-65.19652344 13.32691406 -65.59226563 12.67335937 -66 12 C-65.67 11.01 -65.34 10.02 -65 9 C-64.60554688 9.48855469 -64.21109375 9.97710937 -63.8046875 10.48046875 C-60.89862199 12.92735075 -58.10593332 12.33974815 -54.453125 12.23828125 C-51.6816612 11.96907856 -49.45926113 11.31160594 -47 10 C-47 11.32 -47 12.64 -47 14 C-45.0830014 13.68954268 -43.16641277 13.37655329 -41.25 13.0625 C-40.18265625 12.88847656 -39.1153125 12.71445313 -38.015625 12.53515625 C-35.63652407 12.11295829 -33.33084789 11.62797116 -31 11 C-31 8.69 -31 6.38 -31 4 C-25.67386827 5.6124986 -20.91745243 7.99719106 -16.03515625 10.609375 C-12.66169876 12.35857518 -10.89721985 13 -7 13 C-7 9.37 -7 5.74 -7 2 C-2 0 -2 0 0 0 Z " fill="#F8F8F9" transform="translate(103,135)"/>
<path d="M0 0 C0.97582031 0.03609375 1.95164062 0.0721875 2.95703125 0.109375 C4.06111328 0.17898437 4.06111328 0.17898437 5.1875 0.25 C5.953125 2.97265625 5.953125 2.97265625 6.1875 6.25 C-3.64216488 19.57415584 -23.98144174 28.27561127 -39.8125 31.25 C-44.96714743 31.84977608 -50.13225791 31.86977121 -55.31567383 31.82641602 C-57.61362573 31.81256854 -59.90746778 31.84674602 -62.20507812 31.88476562 C-82.49213287 31.99134217 -100.38203027 24.76191679 -116.0546875 12.01171875 C-117.8125 10.25 -117.8125 10.25 -118.8125 7.25 C-118.17441406 7.05664062 -117.53632812 6.86328125 -116.87890625 6.6640625 C-116.05261719 6.40367187 -115.22632813 6.14328125 -114.375 5.875 C-113.55128906 5.61976563 -112.72757813 5.36453125 -111.87890625 5.1015625 C-109.63451984 4.44117773 -109.63451984 4.44117773 -108.8125 2.25 C-105.24309729 3.92261866 -102.0070237 6.00530414 -98.6875 8.125 C-91.03563733 12.9015 -83.58376436 16.1347091 -74.72265625 17.85546875 C-72.8125 18.25 -72.8125 18.25 -69.8125 19.25 C-47.48582968 20.18938045 -25.61614274 17.2592618 -8.234375 1.984375 C-5.25268891 -0.15089698 -3.61982494 -0.17444939 0 0 Z " fill="#030303" transform="translate(147.8125,148.75)"/>
<path d="M0 0 C15.08848725 1.28412657 30.55582635 12.49029605 40.33886719 23.5078125 C43.09969503 26.86551909 45.58547197 30.38852646 48 34 C48.41765625 34.61359375 48.8353125 35.2271875 49.265625 35.859375 C55.85687181 46.42629449 57.16590288 56.48854319 58 69 C43.15 69 28.3 69 13 69 C13 68.67 13 68.34 13 68 C21.25 68 29.5 68 38 68 C37.67 67.34 37.34 66.68 37 66 C36.67114019 63.91163545 36.34661871 61.82244215 36.05004883 59.72924805 C33.45772991 41.55508493 28.23500026 23.63105657 14 11 C10.44303406 8.45931004 6.77378794 6.20086825 3 4 C2.01 3.34 1.02 2.68 0 2 C0 1.34 0 0.68 0 0 Z " fill="#D91717" transform="translate(109,15)"/>
<path d="M0 0 C3.16495103 1.19422842 5.47341679 2.77390849 8 5 C9.3921875 6.175625 9.3921875 6.175625 10.8125 7.375 C14.91371509 12.2964581 16.63921193 17.24751164 16.421875 23.59375 C15.42836797 29.26041972 12.44408029 34.10464462 9 38.625 C6.50830262 40.33804195 4.96272629 40.32919181 2 40 C2 39.34 2 38.68 2 38 C7.75 35 7.75 35 10 35 C9.360625 34.05125 8.72125 33.1025 8.0625 32.125 C6.22333008 28.97213728 5.71203822 26.50683417 5.5 22.875 C5.21532068 18.41502403 4.35031305 16.15323581 1 13 C-2.68497796 10.54334803 -5.71971786 10.29913509 -10 11 C-12.8100346 12.79363911 -14.50940468 14.01880935 -16 17 C-16.43032996 21.21226823 -16.42629046 24.91059104 -14.875 28.875 C-12.55726392 31.50176755 -10.20379402 32.64728697 -7 34 C-7.495 34.556875 -7.99 35.11375 -8.5 35.6875 C-10.24754367 38.38162983 -10.26218749 39.85375007 -10 43 C-14.19284803 42.26441263 -16.20371886 40.2255749 -19.21875 37.375 C-20.90046406 35.84772651 -20.90046406 35.84772651 -23.03125 35.6875 C-25 35 -25 35 -26.72265625 32.40625 C-28.16316355 28.56489721 -28.43333795 25.59546172 -28.4375 21.5 C-28.45683594 20.2315625 -28.47617188 18.963125 -28.49609375 17.65625 C-27.6281835 11.25968308 -23.66760107 7.21222536 -19 3 C-13.11669547 -1.24791044 -6.99281654 -0.84641558 0 0 Z " fill="#F4F5F5" transform="translate(96,68)"/>
<path d="M0 0 C3.48143357 2.56526684 5.08990533 4.18197932 5.875 8.5 C5.01273691 14.10471011 1.65597115 19.04288557 -2.625 22.75 C-3.285 22.75 -3.945 22.75 -4.625 22.75 C-4.33625 23.79800781 -4.0475 24.84601563 -3.75 25.92578125 C-3.37480207 27.30463366 -2.99981295 28.68354289 -2.625 30.0625 C-2.43421875 30.75279297 -2.2434375 31.44308594 -2.046875 32.15429688 C-1.24783816 35.10787949 -0.625 37.67559219 -0.625 40.75 C-4.09 41.245 -4.09 41.245 -7.625 41.75 C-7.99262451 40.87674072 -8.36024902 40.00348145 -8.73901367 39.10375977 C-10.11231476 35.86717066 -11.50239536 32.63893347 -12.90454102 29.41479492 C-13.50779539 28.01801529 -14.10421116 26.6182614 -14.69360352 25.21557617 C-15.54222539 23.19929628 -16.41489556 21.19500405 -17.29296875 19.19140625 C-17.81141357 17.98170166 -18.3298584 16.77199707 -18.86401367 15.52563477 C-20.34023254 12.52390262 -20.34023254 12.52390262 -23.21606445 11.99194336 C-24.01101318 11.91210205 -24.80596191 11.83226074 -25.625 11.75 C-27.5705198 9.35052558 -28.69790379 7.8628549 -28.4921875 4.72265625 C-27.625 2.75 -27.625 2.75 -25.578125 1.484375 C-17.13561601 -1.59006469 -8.67113082 -2.99004511 0 0 Z " fill="#F2C30B" transform="translate(35.625,110.25)"/>
<path d="M0 0 C-0.33 0.99 -0.66 1.98 -1 3 C-4.5625 4.6875 -4.5625 4.6875 -8 6 C-7.63692621 8.68674602 -7.33095772 10.55872304 -5.6875 12.75 C-4.08974612 14.15365764 -4.08974612 14.15365764 -2.08300781 14.20727539 C0 15 0 15 1.55566406 17.56030273 C2.03745117 18.67348877 2.51923828 19.7866748 3.015625 20.93359375 C3.54414063 22.13951172 4.07265625 23.34542969 4.6171875 24.58789062 C4.88499023 25.21928955 5.15279297 25.85068848 5.42871094 26.5012207 C6.24790129 28.43255207 7.0866168 30.35437977 7.9296875 32.27539062 C12 41.66417796 12 41.66417796 12 44 C15.465 43.505 15.465 43.505 19 43 C18.71125 41.95199219 18.4225 40.90398437 18.125 39.82421875 C17.74980207 38.44536634 17.37481295 37.06645711 17 35.6875 C16.80921875 34.99720703 16.6184375 34.30691406 16.421875 33.59570312 C15.62283816 30.64212051 15 28.07440781 15 25 C16.4786954 23.78418378 17.96145051 22.57246545 19.4765625 21.40234375 C21.7259794 19.33172666 22.6972956 16.72947589 24 14 C24.99 13.67 25.98 13.34 27 13 C27 13.66 27 14.32 27 15 C27.66 15 28.32 15 29 15 C27.79618552 17.49361571 26.54571278 19.68143083 25 22 C24.66850259 26.47521505 24.78480667 30.03596983 27 34 C29.75078884 34.91692961 31.35948913 35.10886083 34.1875 35.0625 C35.445625 35.041875 36.70375 35.02125 38 35 C38 37 38 37 36.8125 38.6015625 C34.43754257 40.433965 32.97335294 40.40154779 30 40.375 C28.700625 40.38660156 28.700625 40.38660156 27.375 40.3984375 C24.60619233 39.93393358 23.73070701 39.15199754 22 37 C22.37125 37.928125 22.7425 38.85625 23.125 39.8125 C23.41375 40.864375 23.7025 41.91625 24 43 C21.52219284 46.71671074 19.69258848 47.18452611 15.5625 48.75 C14.40878906 49.19859375 13.25507813 49.6471875 12.06640625 50.109375 C9 51 9 51 6 50 C4.89672852 48.25341797 4.89672852 48.25341797 3.87890625 45.9921875 C3.50056641 45.16976562 3.12222656 44.34734375 2.73242188 43.5 C2.15331055 42.200625 2.15331055 42.200625 1.5625 40.875 C-2.843919 30.46436072 -2.843919 30.46436072 -9.5 21.5 C-13.31820279 17.68179721 -15.846346 14.11274244 -16.25 8.5625 C-16.1675 7.716875 -16.085 6.87125 -16 6 C-14.58671871 5.18162558 -13.16921654 4.37053781 -11.75 3.5625 C-10.56664062 2.88380859 -10.56664062 2.88380859 -9.359375 2.19140625 C-6.08347217 0.53718379 -3.66591048 0 0 0 Z " fill="#4165A0" transform="translate(16,108)"/>
<path d="M0 0 C15.18 0 30.36 0 46 0 C46 7.41020486 45.6772577 9.75306537 43 16 C42.23816406 15.79503906 41.47632813 15.59007813 40.69140625 15.37890625 C34.43793676 13.74722695 28.44066194 12.53672183 22 12 C22 14.97 22 17.94 22 21 C19.03 21.66 16.06 22.32 13 23 C12.66223316 21.2508503 12.32996329 19.50063855 12 17.75 C11.814375 16.77546875 11.62875 15.8009375 11.4375 14.796875 C11 12 11 12 11 8 C4.565 8.495 4.565 8.495 -2 9 C-1.34 6.03 -0.68 3.06 0 0 Z " fill="#F8F9FA" transform="translate(122,96)"/>
<path d="M0 0 C15.18 0 30.36 0 46 0 C46.66 3.3 47.32 6.6 48 10 C45.36 10.99 42.72 11.98 40 13 C39.67 15.97 39.34 18.94 39 22 C39.99 22 40.98 22 42 22 C42 22.66 42 23.32 42 24 C38.7 24.66 35.4 25.32 32 26 C31.79375 24.618125 31.5875 23.23625 31.375 21.8125 C30.21675045 16.58805523 28.45260491 14.88109729 24 12 C17.57478442 8.25195758 9.03146748 9.77713609 2 11 C-0.57877584 6.97066275 0 5.48465565 0 0 Z " fill="#F6F7F8" transform="translate(12,96)"/>
<path d="M0 0 C2.78637633 4.1795645 1.79562512 6.14668677 1 11 C3.31 11 5.62 11 8 11 C7.979375 9.906875 7.95875 8.81375 7.9375 7.6875 C8 4 8 4 9 1 C9.66 1 10.32 1 11 1 C11.680625 2.4540625 11.680625 2.4540625 12.375 3.9375 C13.65786221 7.07079582 13.65786221 7.07079582 16 8 C16.33 6.35 16.66 4.7 17 3 C19.68092691 5.68092691 19.38670257 7.39167363 19.625 11.125 C19.69976562 12.22070312 19.77453125 13.31640625 19.8515625 14.4453125 C19.90054688 15.28835937 19.94953125 16.13140625 20 17 C22.97 17.33 25.94 17.66 29 18 C29.33 17.34 29.66 16.68 30 16 C30.38133299 17.9914056 30.71325582 19.99279077 31 22 C30.505 22.495 30.505 22.495 30 23 C28.0595464 22.93541607 26.12130184 22.79803668 24.1875 22.625 C23.12917969 22.53476563 22.07085937 22.44453125 20.98046875 22.3515625 C18.55629337 22.06561783 16.34052993 21.66872284 14 21 C14 19.68 14 18.36 14 17 C12.72382812 16.86722656 11.44765625 16.73445313 10.1328125 16.59765625 C8.46352004 16.41947335 6.79425036 16.24107686 5.125 16.0625 C3.86236328 15.93198242 3.86236328 15.93198242 2.57421875 15.79882812 C1.76855469 15.71181641 0.96289062 15.62480469 0.1328125 15.53515625 C-0.61081543 15.456604 -1.35444336 15.37805176 -2.12060547 15.29711914 C-4 15 -4 15 -6 14 C-5.67 12.35 -5.34 10.7 -5 9 C-7.31 9.66 -9.62 10.32 -12 11 C-12 14.63 -12 18.26 -12 22 C-16.41753132 23.10438283 -16.80245698 22.95946611 -20.546875 20.91015625 C-21.39121094 20.45576172 -22.23554687 20.00136719 -23.10546875 19.53320312 C-24.41451172 18.80520508 -24.41451172 18.80520508 -25.75 18.0625 C-27.08224609 17.34030273 -27.08224609 17.34030273 -28.44140625 16.60351562 C-30.63374808 15.41305044 -32.81932384 14.21166274 -35 13 C-35 12.01 -35 11.02 -35 10 C-29.57932371 8.47387114 -26.35238315 9.81720725 -21.625 12.4375 C-20.98433594 12.77587891 -20.34367187 13.11425781 -19.68359375 13.46289062 C-18.11467525 14.29418326 -16.55620884 15.14515103 -15 16 C-15 13.69 -15 11.38 -15 9 C-17.31 8.67 -19.62 8.34 -22 8 C-19.45663477 5.45663477 -18.39825323 5.75258299 -14.875 5.625 C-9.40959458 5.23666856 -4.04588119 4.04588119 0 0 Z " fill="#486995" transform="translate(108,126)"/>
<path d="M0 0 C3.63 0.66 7.26 1.32 11 2 C11.99 6.29 12.98 10.58 14 15 C15.46233512 11.3441622 16.78322054 7.7372512 18 4 C20.64 4.33 23.28 4.66 26 5 C25.27750007 9.16560962 24.06117487 13.04587223 22.71484375 17.05078125 C22.49429825 17.70958786 22.27375275 18.36839447 22.04652405 19.04716492 C21.34634445 21.13657177 20.64198992 23.22454302 19.9375 25.3125 C19.46000938 26.73493306 18.98279292 28.15745818 18.50585938 29.58007812 C17.34041068 33.05445656 16.17121529 36.52756063 15 40 C13.02 39.67 11.04 39.34 9 39 C8.67 33.72 8.34 28.44 8 23 C7.34 26.3 6.68 29.6 6 33 C4.02 33 2.04 33 0 33 C-0.37353684 29.07786321 -0.29240051 27.42032574 2 24.125 C4.66693901 19.9579078 4.47955299 17.87545537 4 13 C3.34 12.01 2.68 11.02 2 10 C1.92094936 7.66800612 1.91201231 5.33167378 2 3 C1.34 3 0.68 3 0 3 C0 2.01 0 1.02 0 0 Z " fill="#F2C30A" transform="translate(150,111)"/>
<path d="M0 0 C0 2.97 0 5.94 0 9 C0.66 9 1.32 9 2 9 C2.268125 8.2575 2.53625 7.515 2.8125 6.75 C3.94229421 4.13363446 5.20893202 2.19812889 7 0 C9.95409701 1.37154504 12.44008376 2.98863724 15 5 C13.56013005 8.74366186 11.12649698 10.9693114 8.2421875 13.6328125 C6.77584591 14.93884003 6.77584591 14.93884003 7 17 C8.19625 17.556875 9.3925 18.11375 10.625 18.6875 C13.48354457 20.09912695 15.81729476 21.55864725 18.1875 23.6875 C20.98736888 25.98961441 22.45305873 26.68703459 26 27 C26 29.31 26 31.62 26 34 C22.80011537 33.32853826 20.14708994 32.18987247 17.234375 30.71484375 C15.90019531 30.04291992 15.90019531 30.04291992 14.5390625 29.35742188 C13.61867188 28.88884766 12.69828125 28.42027344 11.75 27.9375 C10.81414062 27.46505859 9.87828125 26.99261719 8.9140625 26.50585938 C6.60755424 25.34083735 4.30353384 24.1708922 2 23 C2 26.96 2 30.92 2 35 C-1.465 35.495 -1.465 35.495 -5 36 C-5.125 29.25 -5.125 29.25 -4 27 C-3.37276999 21.65650528 -3.37276999 21.65650528 -5.50390625 17.0703125 C-7.39742264 14.45004178 -7.31345062 12.94074892 -7.1875 9.75 C-7.16042969 8.85796875 -7.13335937 7.9659375 -7.10546875 7.046875 C-7.07066406 6.37140625 -7.03585938 5.6959375 -7 5 C-7.99 5 -8.98 5 -10 5 C-10 4.01 -10 3.02 -10 2 C-6.49223216 0.39644899 -3.85645121 -0.22036864 0 0 Z " fill="#EEC10E" transform="translate(67,108)"/>
<path d="M0 0 C1.4540625 0.0309375 1.4540625 0.0309375 2.9375 0.0625 C5.14645522 15.24906716 5.14645522 15.24906716 1.9375 20.0625 C1.47520964 25.05523591 1.85171386 28.06240685 4.9375 32.0625 C5.9275 32.7225 6.9175 33.3825 7.9375 34.0625 C7.9375 35.0525 7.9375 36.0425 7.9375 37.0625 C5.2975 36.7325 2.6575 36.4025 -0.0625 36.0625 C-0.19527344 35.20785156 -0.32804687 34.35320312 -0.46484375 33.47265625 C-0.64144531 32.36792969 -0.81804687 31.26320312 -1 30.125 C-1.17402344 29.02285156 -1.34804687 27.92070312 -1.52734375 26.78515625 C-1.78095136 24.15823071 -1.78095136 24.15823071 -3.0625 23.0625 C-3.3925 24.3825 -3.7225 25.7025 -4.0625 27.0625 C-5.0525 26.7325 -6.0425 26.4025 -7.0625 26.0625 C-8.25 23 -8.25 23 -9.0625 20.0625 C-9.7225 20.0625 -10.3825 20.0625 -11.0625 20.0625 C-11.3925 23.3625 -11.7225 26.6625 -12.0625 30.0625 C-14.3725 30.0625 -16.6825 30.0625 -19.0625 30.0625 C-19.0625 27.4225 -19.0625 24.7825 -19.0625 22.0625 C-18.4025 22.0625 -17.7425 22.0625 -17.0625 22.0625 C-17.08570312 21.37285156 -17.10890625 20.68320313 -17.1328125 19.97265625 C-17.25441174 13.64081021 -16.66913625 8.18780071 -15.0625 2.0625 C-12.4225 2.0625 -9.7825 2.0625 -7.0625 2.0625 C-6.4025 4.0425 -5.7425 6.0225 -5.0625 8.0625 C-4.918125 6.928125 -4.77375 5.79375 -4.625 4.625 C-3.90732759 0.07974138 -3.90732759 0.07974138 0 0 Z " fill="#F2C30B" transform="translate(128.0625,106.9375)"/>
<path d="M0 0 C3.33902089 0.67633452 5.41278035 2.18285969 7.86328125 4.5 C10.1379237 7.94326609 9.69405155 11.48054697 9.140625 15.43359375 C8.439375 15.63984375 7.738125 15.84609375 7.015625 16.05859375 C4.19016959 17.40989851 3.24490398 18.32789687 1.265625 20.62109375 C-1.24897725 23.25883374 -1.58202502 23.41446617 -5.484375 23.68359375 C-8.859375 22.43359375 -8.859375 22.43359375 -11.296875 19.93359375 C-13.23954171 15.58202031 -13.73381003 12.12610646 -12.859375 7.43359375 C-9.64381275 2.22216528 -6.27861707 -0.19766017 0 0 Z " fill="#100713" transform="translate(91.859375,77.56640625)"/>
<path d="M0 0 C0.94746094 -0.01675781 1.89492187 -0.03351563 2.87109375 -0.05078125 C5.93375309 0.36261109 7.28868559 1.27520529 9.5625 3.3125 C8.19879701 6.30470268 6.61341917 8.60276529 4.4375 11.0625 C3.89867188 11.67609375 3.35984375 12.2896875 2.8046875 12.921875 C2.18980469 13.61023438 2.18980469 13.61023438 1.5625 14.3125 C2.305 13.77625 3.0475 13.24 3.8125 12.6875 C6.5625 11.3125 6.5625 11.3125 8.75 11.9375 C10.5625 13.3125 10.5625 13.3125 12.5625 16.3125 C6.20275906 20.69365487 1.28832078 22.44611326 -6.4375 21.3125 C-9.26174288 19.12227082 -10.85258603 17.48232793 -12.4375 14.3125 C-12.8260634 10.19372799 -12.89570463 8.02350718 -10.625 4.5 C-7.07066715 0.94566715 -4.93369684 0.02008289 0 0 Z " fill="#ECC00F" transform="translate(95.4375,110.6875)"/>
<path d="M0 0 C2.6911798 3.24524622 2.79118887 5.18919037 2.546875 9.30859375 C1.88944793 12.82095877 0.49852089 14.93238226 -1.875 17.5625 C-5.76569429 19.87588579 -9.41413909 20.04913937 -13.875 19.5625 C-16.23997439 17.69541495 -17.53530715 16.24188569 -18.875 13.5625 C-19.39632628 9.0443389 -19.22767424 7.09654957 -16.6875 3.25 C-11.69878524 -1.5169941 -6.42420019 -3.2121001 0 0 Z " fill="#F3C40B" transform="translate(58.875,123.4375)"/>
<path d="M0 0 C2.5625 1.5 2.5625 1.5 4 4 C4.47713441 8.29420973 4.46799392 10.83001519 2.875 14.8125 C-0.22088859 18.42437002 -3.41798284 19.74171148 -8.0625 20.5 C-12.18302132 19.79863467 -13.57124965 18.35739019 -16 15 C-16.71747893 10.61540654 -16.32430561 8.59269646 -14.1875 4.6875 C-10.01121699 -0.44336198 -6.25562102 -0.88075531 0 0 Z " fill="#EBBF0F" transform="translate(148,120)"/>
<path d="M0 0 C6.93 0 13.86 0 21 0 C21 7.41020486 20.6772577 9.75306537 18 16 C11.63583076 14.43247063 5.28643343 12.85735533 -1 11 C-0.67 7.37 -0.34 3.74 0 0 Z " fill="#DADBDB" transform="translate(147,96)"/>
<path d="M0 0 C3.78570414 1.26190138 4.21831571 2.54855815 6.1875 5.9375 C6.71730469 6.83339844 7.24710937 7.72929688 7.79296875 8.65234375 C9 11 9 11 9 13 C9.7528125 13.03480469 10.505625 13.06960937 11.28125 13.10546875 C14 14 14 14 15.84375 16.73828125 C16.3903125 17.91777344 16.936875 19.09726563 17.5 20.3125 C17.79334229 20.93463379 18.08668457 21.55676758 18.38891602 22.19775391 C21.11531827 28.04863841 23.61623877 34.00214916 26 40 C31.57887715 39.36239504 31.57887715 39.36239504 37 38 C37.495 37.01 37.495 37.01 38 36 C38.99 36.495 38.99 36.495 40 37 C37.52219284 40.71671074 35.69258848 41.18452611 31.5625 42.75 C30.40878906 43.19859375 29.25507813 43.6471875 28.06640625 44.109375 C25 45 25 45 22 44 C20.89672852 42.25341797 20.89672852 42.25341797 19.87890625 39.9921875 C19.50056641 39.16976562 19.12222656 38.34734375 18.73242188 37.5 C18.15331055 36.200625 18.15331055 36.200625 17.5625 34.875 C13.156081 24.46436072 13.156081 24.46436072 6.5 15.5 C2.68179721 11.68179721 0.153654 8.11274244 -0.25 2.5625 C-0.1675 1.716875 -0.085 0.87125 0 0 Z " fill="#1F2F5D" transform="translate(0,114)"/>
<path d="M0 0 C0.99 0 1.98 0 3 0 C3.33984375 2.21875 3.33984375 2.21875 3 5 C0.69140625 7.28125 0.69140625 7.28125 -2.4375 9.5 C-2.98664063 9.89018311 -3.53578125 10.28036621 -4.1015625 10.68237305 C-14.83448715 18.19573303 -25.79071117 23.11938074 -39 24 C-35.94723589 21.3542711 -32.81362399 19.29187561 -29.3125 17.3125 C-23.1575389 13.7082435 -18.02933345 9.02933345 -13 4 C-10.81360547 3.92741054 -8.62499611 3.91626217 -6.4375 3.9375 C-4.64119141 3.95103516 -4.64119141 3.95103516 -2.80859375 3.96484375 C-1.88175781 3.97644531 -0.95492187 3.98804688 0 4 C0 2.68 0 1.36 0 0 Z " fill="#D8D8D8" transform="translate(140,144)"/>
<path d="M0 0 C0.33 0 0.66 0 1 0 C1.03738281 0.67546875 1.07476562 1.3509375 1.11328125 2.046875 C1.21189453 3.38492188 1.21189453 3.38492188 1.3125 4.75 C1.37050781 5.63171875 1.42851563 6.5134375 1.48828125 7.421875 C2.06822948 10.34375157 3.18843328 11.68818832 5 14 C5 14.99 5 15.98 5 17 C-0.75 20 -0.75 20 -3 20 C-3 20.66 -3 21.32 -3 22 C-1.68 22.33 -0.36 22.66 1 23 C0.67 23.66 0.34 24.32 0 25 C-3.16015625 25.4140625 -3.16015625 25.4140625 -7.0625 25.625 C-8.35285156 25.69976562 -9.64320312 25.77453125 -10.97265625 25.8515625 C-11.97167969 25.90054688 -12.97070312 25.94953125 -14 26 C-16 23 -16 23 -15.75 21.0625 C-14.22507794 16.86896434 -12.54026161 14.30052599 -9.125 11.375 C-8.44695312 10.78460938 -7.76890625 10.19421875 -7.0703125 9.5859375 C-5 8 -5 8 -2.7890625 6.984375 C-2.19867188 6.65953125 -1.60828125 6.3346875 -1 6 C-0.18415432 2.94091587 -0.18415432 2.94091587 0 0 Z " fill="#3B6FA3" transform="translate(101,86)"/>
<path d="M0 0 C0.33 0 0.66 0 1 0 C1.12375 1.093125 1.2475 2.18625 1.375 3.3125 C1.75464801 7.07381802 1.75464801 7.07381802 4 10 C4.62393095 16.34329797 3.76446576 18.75256288 0 24 C-0.79070548 27.23038842 -0.79070548 27.23038842 -1 30 C0.98 30 2.96 30 5 30 C5 30.33 5 30.66 5 31 C2.03 31.33 -0.94 31.66 -4 32 C-4 30.35 -4 28.7 -4 27 C-4.66 27.33 -5.32 27.66 -6 28 C-6.65772428 31.02934491 -6.65772428 31.02934491 -7 34 C-7.33 32.68 -7.66 31.36 -8 30 C-8.99 30 -9.98 30 -11 30 C-11.33 31.32 -11.66 32.64 -12 34 C-13.20628008 31.66785852 -14.1654738 29.50357861 -15 27 C-15.928125 26.566875 -15.928125 26.566875 -16.875 26.125 C-19.82311726 24.56423204 -20.65149096 23.03414534 -22 20 C-22.3804212 15.58711402 -22.48386059 13.72579089 -20 10 C-19.60986284 8.0103005 -19.26797351 6.00980131 -19 4 C-18.67 4 -18.34 4 -18 4 C-16.875 11.75 -16.875 11.75 -18 14 C-18.35872645 17.87424565 -18.56710729 20.14933906 -16.375 23.4375 C-13.28636604 25.46949603 -11.64867665 25.4378412 -8 25 C-4.75279778 24.44586908 -4.75279778 24.44586908 -2 23 C0.62337414 18.94569451 0.30607422 14.66763186 0 10 C-0.66 9.34 -1.32 8.68 -2 8 C-1.63723355 5.17042171 -0.90305236 2.70915709 0 0 Z " fill="#4D6E9C" transform="translate(151,114)"/>
<path d="M0 0 C1.17369141 -0.00386719 1.17369141 -0.00386719 2.37109375 -0.0078125 C4.5625 0.125 4.5625 0.125 7.5625 1.125 C7.5625 1.785 7.5625 2.445 7.5625 3.125 C4.9225 3.125 2.2825 3.125 -0.4375 3.125 C-0.48648438 4.23359375 -0.53546875 5.3421875 -0.5859375 6.484375 C-0.66099215 7.94794065 -0.73653881 9.41148112 -0.8125 10.875 C-0.85890625 11.96941406 -0.85890625 11.96941406 -0.90625 13.0859375 C-1.1123494 16.86442656 -1.35262843 19.90446668 -3.4375 23.125 C-3.7675 22.135 -4.0975 21.145 -4.4375 20.125 C-7.42209129 18.16957812 -8.70164791 18.125 -12.4375 18.125 C-13.77914079 18.4231424 -15.11601173 18.74743192 -16.4375 19.125 C-14.88249019 15.30815774 -12.40154505 12.93304268 -9.4375 10.125 C-10.4352758 7.13167261 -11.1897025 6.17733685 -13.4375 4.125 C-12.1175 3.135 -10.7975 2.145 -9.4375 1.125 C-9.4375 2.115 -9.4375 3.105 -9.4375 4.125 C-8.4475 4.125 -7.4575 4.125 -6.4375 4.125 C-6.4375 3.135 -6.4375 2.145 -6.4375 1.125 C-4.08479407 -0.05135297 -2.616748 -0.00859359 0 0 Z " fill="#3B6AA0" transform="translate(113.4375,105.875)"/>
<path d="M0 0 C0.66 0.33 1.32 0.66 2 1 C2 6.28 2 11.56 2 17 C3.98 17.33 5.96 17.66 8 18 C8.103125 17.38125 8.20625 16.7625 8.3125 16.125 C9 14 9 14 12 12 C11.40210642 16.18525505 10.63735965 20.08852973 9 24 C5.29218328 25.23593891 4.32489747 24.5678132 0.8125 23.0625 C-0.08855469 22.68222656 -0.98960937 22.30195313 -1.91796875 21.91015625 C-2.60503906 21.60980469 -3.29210937 21.30945313 -4 21 C-4 19.35 -4 17.7 -4 16 C-7.3 16 -10.6 16 -14 16 C-13.67 13.69 -13.34 11.38 -13 9 C-12.01 8.67 -11.02 8.34 -10 8 C-10 9.65 -10 11.3 -10 13 C-5.545 12.505 -5.545 12.505 -1 12 C-0.67 8.04 -0.34 4.08 0 0 Z " fill="#3F5B98" transform="translate(157,133)"/>
<path d="M0 0 C2.97 0 5.94 0 9 0 C9.33 0.99 9.66 1.98 10 3 C8.68 3.33 7.36 3.66 6 4 C6 7.63 6 11.26 6 15 C1.58246868 16.10438283 1.19754302 15.95946611 -2.546875 13.91015625 C-3.39121094 13.45576172 -4.23554687 13.00136719 -5.10546875 12.53320312 C-6.41451172 11.80520508 -6.41451172 11.80520508 -7.75 11.0625 C-9.08224609 10.34030273 -9.08224609 10.34030273 -10.44140625 9.60351562 C-12.63374808 8.41305044 -14.81932384 7.21166274 -17 6 C-17 5.01 -17 4.02 -17 3 C-11.57932371 1.47387114 -8.35238315 2.81720725 -3.625 5.4375 C-2.98433594 5.77587891 -2.34367187 6.11425781 -1.68359375 6.46289062 C-0.11467525 7.29418326 1.44379116 8.14515103 3 9 C3 6.69 3 4.38 3 2 C2.01 2 1.02 2 0 2 C0 1.34 0 0.68 0 0 Z " fill="#3E629E" transform="translate(90,133)"/>
<path d="M0 0 C5.75 1.75 5.75 1.75 8 4 C7.360625 4.33 6.72125 4.66 6.0625 5 C3.67618018 7.3140071 3.72465394 7.88854312 3.5 11.0625 C3.335 12.361875 3.17 13.66125 3 15 C-0.13899149 17.30940088 -3.44875331 17.37709261 -7.25 17.625 C-8.32765625 17.69976562 -9.4053125 17.77453125 -10.515625 17.8515625 C-11.74539062 17.92503906 -11.74539062 17.92503906 -13 18 C-13.33 17.01 -13.66 16.02 -14 15 C-14.99 15.33 -15.98 15.66 -17 16 C-19.1875 15.0625 -19.1875 15.0625 -21 14 C-19.02 14 -17.04 14 -15 14 C-16.18424326 12.58422523 -16.18424326 12.58422523 -19.5625 12.9375 C-21.2640625 12.9684375 -21.2640625 12.9684375 -23 13 C-23 12.67 -23 12.34 -23 12 C-17.555 11.01 -17.555 11.01 -12 10 C-12 12.33333333 -12 14.66666667 -12 17 C-11.01 17 -10.02 17 -9 17 C-8.67 14.69 -8.34 12.38 -8 10 C-7.67 10.99 -7.34 11.98 -7 13 C-3.535 12.505 -3.535 12.505 0 12 C0 8.04 0 4.08 0 0 Z " fill="#53719F" transform="translate(69,131)"/>
<path d="M0 0 C0.66 0.33 1.32 0.66 2 1 C4.04055005 1.07065617 6.08334257 1.08421976 8.125 1.0625 C9.22070312 1.05347656 10.31640625 1.04445313 11.4453125 1.03515625 C12.28835937 1.02355469 13.13140625 1.01195313 14 1 C14.33951619 2.56116819 14.67132544 4.12401338 15 5.6875 C15.185625 6.55761719 15.37125 7.42773438 15.5625 8.32421875 C15.98972047 10.93712964 16.07616201 13.35813038 16 16 C16.5775 15.649375 17.155 15.29875 17.75 14.9375 C20.41768223 13.82596574 21.34662399 13.9728867 24 15 C24.99 15.66 25.98 16.32 27 17 C25.4221875 17.1546875 25.4221875 17.1546875 23.8125 17.3125 C20.12569246 17.97733415 18.03361401 18.88566296 15 21 C12.70657253 15.10261508 11.65451286 10.33393082 12 4 C10.02 4.33 8.04 4.66 6 5 C5.87625 6.134375 5.7525 7.26875 5.625 8.4375 C5.41875 9.613125 5.2125 10.78875 5 12 C4.01 12.495 4.01 12.495 3 13 C2.67 10.03 2.34 7.06 2 4 C1.01 4 0.02 4 -1 4 C-0.67 2.68 -0.34 1.36 0 0 Z " fill="#4576AD" transform="translate(119,103)"/>
<path d="M0 0 C1.34132478 4.02397435 0.02835109 6.66934109 -1.30859375 10.51171875 C-1.55416519 11.23994339 -1.79973663 11.96816803 -2.05274963 12.71846008 C-2.83926842 15.04442279 -3.63819864 17.36590269 -4.4375 19.6875 C-4.97282787 21.26339266 -5.50734327 22.83956156 -6.04101562 24.41601562 C-7.35126977 28.28061277 -8.67267103 32.14123572 -10 36 C-10.33 36 -10.66 36 -11 36 C-10.67 32.7 -10.34 29.4 -10 26 C-10.66 26.33 -11.32 26.66 -12 27 C-9.98231892 18.04346448 -7.21270045 9.58413242 -4 1 C-3.67 1.66 -3.34 2.32 -3 3 C-2.34 3 -1.68 3 -1 3 C-0.67 2.01 -0.34 1.02 0 0 Z " fill="#59748C" transform="translate(178,120)"/>
<path d="M0 0 C7.49124037 -0.33525613 12.05878289 1.72474178 18.09375 5.94921875 C20.38121905 9.38042233 19.86485111 12.13270217 19.59375 16.19921875 C18.93375 16.52921875 18.27375 16.85921875 17.59375 17.19921875 C17.34625 15.94109375 17.09875 14.68296875 16.84375 13.38671875 C16.12698599 10.50949584 15.79722975 9.4026985 13.65625 7.26171875 C9.24339792 4.98843132 5.24379654 5.08179464 0.40625 5.13671875 C-0.71813477 5.14348633 -0.71813477 5.14348633 -1.86523438 5.15039062 C-3.71227383 5.16215521 -5.55927213 5.1800901 -7.40625 5.19921875 C-7.40625 4.53921875 -7.40625 3.87921875 -7.40625 3.19921875 C-8.39625 3.19921875 -9.38625 3.19921875 -10.40625 3.19921875 C-10.07625 2.53921875 -9.74625 1.87921875 -9.40625 1.19921875 C-6.25465818 0.5286673 -3.20556308 0.26539564 0 0 Z " fill="#3771B2" transform="translate(23.40625,104.80078125)"/>
<path d="M0 0 C3.78570414 1.26190138 4.21831571 2.54855815 6.1875 5.9375 C6.71730469 6.83339844 7.24710937 7.72929688 7.79296875 8.65234375 C9 11 9 11 9 13 C10.1446875 13.061875 10.1446875 13.061875 11.3125 13.125 C14 14 14 14 15.875 16.875 C17 20 17 20 16 23 C15.34 23 14.68 23 14 23 C11 17.25 11 17.25 11 15 C9.02 15.99 9.02 15.99 7 17 C6.01941648 15.54261898 5.04057868 14.08406325 4.0625 12.625 C3.24458984 11.40683594 3.24458984 11.40683594 2.41015625 10.1640625 C0.03889831 6.52506833 -0.09441152 4.34292969 0 0 Z " fill="#124C87" transform="translate(0,114)"/>
<path d="M0 0 C2 3 2 3 2 6 C4.97 6.33 7.94 6.66 11 7 C11.33 6.34 11.66 5.68 12 5 C12.38133299 6.9914056 12.71325582 8.99279077 13 11 C12.67 11.33 12.34 11.66 12 12 C10.0595464 11.93541607 8.12130184 11.79803668 6.1875 11.625 C4.60001953 11.48964844 4.60001953 11.48964844 2.98046875 11.3515625 C0.55629337 11.06561783 -1.65947007 10.66872284 -4 10 C-3.67 7.36 -3.34 4.72 -3 2 C-2.01 2 -1.02 2 0 2 C0 1.34 0 0.68 0 0 Z " fill="#3D5F9E" transform="translate(126,137)"/>
<path d="M0 0 C-0.33 0.99 -0.66 1.98 -1 3 C-4.5625 4.6875 -4.5625 4.6875 -8 6 C-7.49047288 10.45836229 -5.80244599 12.58451895 -3 16 C-2.25 18.3125 -2.25 18.3125 -2 20 C-4.23046875 19.94140625 -4.23046875 19.94140625 -7 19 C-8.67744027 16.63167683 -9.99759602 14.48996067 -11.3125 11.9375 C-11.67150391 11.27427734 -12.03050781 10.61105469 -12.40039062 9.92773438 C-13.28225977 8.29333689 -14.14320594 6.64768088 -15 5 C-13.75264433 4.3490741 -12.50198168 3.70448331 -11.25 3.0625 C-10.55390625 2.70285156 -9.8578125 2.34320313 -9.140625 1.97265625 C-5.97004622 0.53201005 -3.48822516 0 0 0 Z " fill="#3769A1" transform="translate(16,108)"/>
<path d="M0 0 C0.33 0 0.66 0 1 0 C1.03738281 0.67546875 1.07476562 1.3509375 1.11328125 2.046875 C1.21189453 3.38492188 1.21189453 3.38492188 1.3125 4.75 C1.39951172 6.07257813 1.39951172 6.07257813 1.48828125 7.421875 C2.06822948 10.34375157 3.18843328 11.68818832 5 14 C5 14.99 5 15.98 5 17 C0.29026351 18.76615118 -4.03083364 19.48594831 -9 20 C-7.347626 16.41985634 -5.20011595 13.26468818 -3 10 C-2.67 9.34 -2.34 8.68 -2 8 C-1.34 8 -0.68 8 0 8 C0 5.36 0 2.72 0 0 Z " fill="#4C76A0" transform="translate(101,86)"/>
<path d="M0 0 C1.83666992 0.19750977 1.83666992 0.19750977 4 1 C5.38793945 3.10131836 5.38793945 3.10131836 6.61328125 5.83984375 C7.05607422 6.82017578 7.49886719 7.80050781 7.95507812 8.81054688 C8.40302734 9.84244141 8.85097656 10.87433594 9.3125 11.9375 C10.01342773 13.47954102 10.01342773 13.47954102 10.72851562 15.05273438 C13.22772523 20.67503308 13.22772523 20.67503308 14 23 C13.67 23.66 13.34 24.32 13 25 C12.01 25 11.02 25 10 25 C8.51586841 21.58546886 7.03856685 18.16802429 5.5625 14.75 C5.14162109 13.78191406 4.72074219 12.81382812 4.28710938 11.81640625 C3.88427734 10.88183594 3.48144531 9.94726562 3.06640625 8.984375 C2.69459229 8.12553711 2.32277832 7.26669922 1.93969727 6.38183594 C1.10262318 4.26011736 0.48850005 2.22413847 0 0 Z " fill="#476B9A" transform="translate(12,122)"/>
<path d="M0 0 C0.66 0 1.32 0 2 0 C2 1.65 2 3.3 2 5 C3.093125 4.979375 4.18625 4.95875 5.3125 4.9375 C9 5 9 5 12 6 C12.13277344 6.64453125 12.26554688 7.2890625 12.40234375 7.953125 C12.59957031 8.62859375 12.79679688 9.3040625 13 10 C15.08034294 11.1375213 15.08034294 11.1375213 17.5625 11.75 C18.38878906 11.99234375 19.21507812 12.2346875 20.06640625 12.484375 C20.70449219 12.65453125 21.34257812 12.8246875 22 13 C22 13.66 22 14.32 22 15 C18.29218328 16.23593891 17.32489747 15.5678132 13.8125 14.0625 C12.91144531 13.68222656 12.01039063 13.30195313 11.08203125 12.91015625 C10.39496094 12.60980469 9.70789063 12.30945313 9 12 C9 10.35 9 8.7 9 7 C5.7 7 2.4 7 -1 7 C-0.67 4.69 -0.34 2.38 0 0 Z " fill="#1D2A5B" transform="translate(144,142)"/>
<path d="M0 0 C1 3 1 3 0.875 6.375 C1.04242366 11.23028623 2.62961568 13.62961568 6 17 C4.25 17.75 4.25 17.75 2 18 C0.6434836 16.69026002 -0.68557638 15.35197858 -2 14 C-4.28764263 12.81418092 -6.58854088 11.92748428 -9 11 C-8.34 9.68 -7.68 8.36 -7 7 C-6.67 7.99 -6.34 8.98 -6 10 C-4.68 10 -3.36 10 -2 10 C-2 8.68 -2 7.36 -2 6 C-2.99 5.67 -3.98 5.34 -5 5 C-3.35 3.35 -1.7 1.7 0 0 Z " fill="#436C9F" transform="translate(83,115)"/>
<path d="M0 0 C6 0 6 0 9 2 C9.4375 4.875 9.4375 4.875 9 8 C7.125 10.375 7.125 10.375 5 12 C4.34 12 3.68 12 3 12 C2.01 8.04 1.02 4.08 0 0 Z " fill="#4770A1" transform="translate(26,118)"/>
<path d="M0 0 C2.46016477 1.81275299 3.97588084 3.02949053 5.375 5.75 C5.5625 9 5.5625 9 5.375 11.75 C5.148125 11.193125 4.92125 10.63625 4.6875 10.0625 C3.01348923 7.11305245 0.82543651 5.0747731 -1.625 2.75 C-1.955 2.42 -2.285 2.09 -2.625 1.75 C-5.36442574 1.64908941 -8.07326228 1.61133797 -10.8125 1.625 C-11.94655273 1.61919922 -11.94655273 1.61919922 -13.10351562 1.61328125 C-17.38803508 1.6207132 -21.40580181 1.90212285 -25.625 2.75 C-19.61186423 -3.26313577 -7.44474771 -2.56715438 0 0 Z " fill="#CCAA17" transform="translate(35.625,110.25)"/>
<path d="M0 0 C0.99 0 1.98 0 3 0 C2.68817931 1.41681634 2.37551263 2.83344651 2.0625 4.25 C1.88847656 5.03890625 1.71445313 5.8278125 1.53515625 6.640625 C1.052444 8.76878703 0.53836822 10.88532842 0 13 C-1.98 13 -3.96 13 -6 13 C-6.25 10.25 -6.25 10.25 -6 7 C-4.125 4.8125 -4.125 4.8125 -2 3 C-1.34 2.01 -0.68 1.02 0 0 Z " fill="#C8A922" transform="translate(156,131)"/>
<path d="M0 0 C0.66 0.66 1.32 1.32 2 2 C1.01 2.495 1.01 2.495 0 3 C0.33 3.66 0.66 4.32 1 5 C-6.9375 13.15798611 -6.9375 13.15798611 -13 14 C-11.40958642 7.43954396 -5.34588597 3.56392398 0 0 Z " fill="#3676A9" transform="translate(99,92)"/>
<path d="M0 0 C7.43831318 3.13412072 14.83339363 6.27336469 22 10 C22 10.99 22 11.98 22 13 C17.07196209 11.52082221 12.70890958 9.46656656 8.1875 7.0625 C7.50751953 6.71509766 6.82753906 6.36769531 6.12695312 6.00976562 C1.11960565 3.35881696 1.11960565 3.35881696 0 0 Z " fill="#304D7D" transform="translate(72,136)"/>
<path d="M0 0 C9.71637974 4.5125479 9.71637974 4.5125479 13.3125 7.75 C16.03883792 10.03251547 17.51365475 10.6923813 21 11 C21 13.31 21 15.62 21 18 C19.68 17.67 18.36 17.34 17 17 C17.66 16.67 18.32 16.34 19 16 C19 15.01 19 14.02 19 13 C18.29875 12.938125 17.5975 12.87625 16.875 12.8125 C12.91084133 11.69219429 10.97783887 9.83933474 8 7 C8 6.34 8 5.68 8 5 C7.05125 4.855625 6.1025 4.71125 5.125 4.5625 C2 4 2 4 0 3 C0 2.01 0 1.02 0 0 Z " fill="#BE9F1B" transform="translate(72,124)"/>
<path d="M0 0 C0 5.30479934 -1.5362057 6.18982627 -5 10 C-5.99 9.67 -6.98 9.34 -8 9 C-8.36190476 3.57142857 -8.36190476 3.57142857 -6.8125 1.125 C-4.43963721 -0.34781139 -2.74086056 -0.22223194 0 0 Z " fill="#3D5E81" transform="translate(97,115)"/>
<path d="M0 0 C0.33 0 0.66 0 1 0 C2.34274501 7.44613143 1.36561846 12.84968433 -1 20 C-1.99 20 -2.98 20 -4 20 C-4 18.68 -4 17.36 -4 16 C-4.66 15.67 -5.32 15.34 -6 15 C-5.65066406 14.50371094 -5.30132812 14.00742188 -4.94140625 13.49609375 C-1.85889249 8.89415395 -0.34610059 5.53760939 0 0 Z " fill="#4C6C94" transform="translate(61,128)"/>
<path d="M0 0 C0.33 0 0.66 0 1 0 C2.125 7.75 2.125 7.75 1 10 C0.60196365 14.97083124 0.60196365 14.97083124 2.5 19.4375 C2.995 19.953125 3.49 20.46875 4 21 C3.01 21.33 2.02 21.66 1 22 C-2.24810928 19.03433501 -2.94820698 16.96680305 -3.1875 12.5 C-3 9 -3 9 -1 6 C-0.60986284 4.0103005 -0.26797351 2.00980131 0 0 Z " fill="#4D6E95" transform="translate(132,118)"/>
<path d="M0 0 C0.66 0 1.32 0 2 0 C2.33 0.99 2.66 1.98 3 3 C4.98 2.67 6.96 2.34 9 2 C8.25 6.75 8.25 6.75 6 9 C3.5 9.3125 3.5 9.3125 1 9 C-1.14809171 5.77786243 -1.29386153 4.72224599 -1 1 C-0.67 0.67 -0.34 0.34 0 0 Z " fill="#4F7094" transform="translate(139,123)"/>
<path d="M0 0 C0.66 0.66 1.32 1.32 2 2 C1.625 4.625 1.625 4.625 1 7 C0.34 7 -0.32 7 -1 7 C-1.33 7.66 -1.66 8.32 -2 9 C-2 8.34 -2 7.68 -2 7 C-5.3 7.33 -8.6 7.66 -12 8 C-11.67 7.34 -11.34 6.68 -11 6 C-10.34 6 -9.68 6 -9 6 C-9 5.34 -9 4.68 -9 4 C-6.03 3.34 -3.06 2.68 0 2 C0 1.34 0 0.68 0 0 Z " fill="#285E94" transform="translate(70,101)"/>
<path d="M0 0 C0.33 0 0.66 0 1 0 C1.08636719 0.60328125 1.17273438 1.2065625 1.26171875 1.828125 C2.16095453 7.24355208 2.16095453 7.24355208 5.625 11.375 C6.40875 11.91125 7.1925 12.4475 8 13 C8 13.99 8 14.98 8 16 C5.36 15.67 2.72 15.34 0 15 C-0.84888195 9.62374766 -1.0024305 5.34629602 0 0 Z " fill="#C6A61D" transform="translate(128,128)"/>
<path d="M0 0 C0.99 0.33 1.98 0.66 3 1 C3 1.99 3 2.98 3 4 C4.98 3.67 6.96 3.34 9 3 C8.125 7.875 8.125 7.875 7 9 C4.0625 9.1875 4.0625 9.1875 1 9 C-1 7 -1 7 -1.1875 3.9375 C-1 1 -1 1 0 0 Z " fill="#486E9B" transform="translate(48,125)"/>
<path d="M0 0 C0.33 0.66 0.66 1.32 1 2 C4.96 2 8.92 2 13 2 C13 2.66 13 3.32 13 4 C10.69 4.33 8.38 4.66 6 5 C5.87625 6.134375 5.7525 7.26875 5.625 8.4375 C5.41875 9.613125 5.2125 10.78875 5 12 C4.01 12.495 4.01 12.495 3 13 C2.67 10.03 2.34 7.06 2 4 C1.01 4 0.02 4 -1 4 C-0.67 2.68 -0.34 1.36 0 0 Z " fill="#3D71A6" transform="translate(119,103)"/>
<path d="M0 0 C2.97 0 5.94 0 9 0 C9.33 0.99 9.66 1.98 10 3 C8.68 3.33 7.36 3.66 6 4 C6 7.63 6 11.26 6 15 C5.67 15 5.34 15 5 15 C4.67 13.02 4.34 11.04 4 9 C3.67 9 3.34 9 3 9 C3 6.69 3 4.38 3 2 C2.01 2 1.02 2 0 2 C0 1.34 0 0.68 0 0 Z " fill="#4269A9" transform="translate(90,133)"/>
<path d="M0 0 C0.99 0 1.98 0 3 0 C3.1953125 2.05078125 3.390625 4.1015625 3.5859375 6.15234375 C3.72257813 6.76207031 3.85921875 7.37179688 4 8 C4.66 8.33 5.32 8.66 6 9 C5.34 10.32 4.68 11.64 4 13 C1.36 12.34 -1.28 11.68 -4 11 C-3.01 10.34 -2.02 9.68 -1 9 C-0.42006301 6.80545319 -0.42006301 6.80545319 -0.3125 4.375 C-0.21388672 3.14910156 -0.21388672 3.14910156 -0.11328125 1.8984375 C-0.05720703 0.95871094 -0.05720703 0.95871094 0 0 Z " fill="#2A5C97" transform="translate(144,108)"/>
<path d="M0 0 C0 0.33 0 0.66 0 1 C-2.64 1.33 -5.28 1.66 -8 2 C-7.28972656 2.04898438 -6.57945313 2.09796875 -5.84765625 2.1484375 C-4.46900391 2.26058594 -4.46900391 2.26058594 -3.0625 2.375 C-1.68771484 2.47941406 -1.68771484 2.47941406 -0.28515625 2.5859375 C0.84599609 2.79089844 0.84599609 2.79089844 2 3 C2.33 3.66 2.66 4.32 3 5 C-2.94 5 -8.88 5 -15 5 C-15 4.34 -15 3.68 -15 3 C-15.99 3 -16.98 3 -18 3 C-17.67 2.34 -17.34 1.68 -17 1 C-11.35450392 -0.20116938 -5.75098214 -0.10414253 0 0 Z " fill="#628AA9" transform="translate(31,105)"/>
<path d="M0 0 C0.33 0 0.66 0 1 0 C1 4.95 1 9.9 1 15 C0.67 14.34 0.34 13.68 0 13 C-2.58605332 12.5316735 -2.58605332 12.5316735 -5.5625 12.375 C-6.57441406 12.30023438 -7.58632812 12.22546875 -8.62890625 12.1484375 C-9.80259766 12.07496094 -9.80259766 12.07496094 -11 12 C-11.33 10.02 -11.66 8.04 -12 6 C-11.34 6 -10.68 6 -10 6 C-10 7.65 -10 9.3 -10 11 C-5.545 10.505 -5.545 10.505 -1 10 C-0.67 6.7 -0.34 3.4 0 0 Z " fill="#3C5B9B" transform="translate(157,135)"/>
<path d="M0 0 C0.2475 0.53625 0.495 1.0725 0.75 1.625 C4.07307947 7.93885099 6.31484093 10.68590648 13 13 C13 13.33 13 13.66 13 14 C10.07196891 14.29776587 7.85557986 14.50237053 5 14 C1.22296188 10.70513696 0.24650971 9.07407801 -0.875 4.1875 C-0.91625 3.135625 -0.9575 2.08375 -1 1 C-0.67 0.67 -0.34 0.34 0 0 Z " fill="#294677" transform="translate(36,134)"/>
<path d="M0 0 C3.63 0.66 7.26 1.32 11 2 C11.20496094 2.89203125 11.40992188 3.7840625 11.62109375 4.703125 C11.89050781 5.87359375 12.15992188 7.0440625 12.4375 8.25 C12.83775391 9.99023438 12.83775391 9.99023438 13.24609375 11.765625 C13.80968 14.18349761 14.38669951 16.59443304 15 19 C14.01 18.67 13.02 18.34 12 18 C11.05078125 14.83984375 11.05078125 14.83984375 10.3125 10.9375 C10.06113281 9.64714844 9.80976563 8.35679688 9.55078125 7.02734375 C9.36902344 6.02832031 9.18726563 5.02929688 9 4 C4.545 3.01 4.545 3.01 0 2 C0 1.34 0 0.68 0 0 Z " fill="#BA9E1D" transform="translate(150,111)"/>
<path d="M0 0 C2 2 2 2 2 5 C6.29 5.66 10.58 6.32 15 7 C15 7.66 15 8.32 15 9 C13.08302063 8.85833643 11.16642277 8.71150416 9.25 8.5625 C8.18265625 8.48128906 7.1153125 8.40007812 6.015625 8.31640625 C3.56320038 8.05909227 1.36078709 7.68187782 -1 7 C-0.67 4.69 -0.34 2.38 0 0 Z " fill="#41517A" transform="translate(123,140)"/>
<path d="M0 0 C0.99 0 1.98 0 3 0 C3.33 2.31 3.66 4.62 4 7 C4.66 7 5.32 7 6 7 C6 8.32 6 9.64 6 11 C5.01 11 4.02 11 3 11 C3 10.34 3 9.68 3 9 C2.01 9 1.02 9 0 9 C0 6.03 0 3.06 0 0 Z " fill="#255D93" transform="translate(51,109)"/>
<path d="M0 0 C2.875 1.4375 2.875 1.4375 5 4 C5.41409388 7.04542461 5.29354833 9.94709737 5 13 C4.67 13 4.34 13 4 13 C3.6596875 11.081875 3.6596875 11.081875 3.3125 9.125 C2.47482205 5.58290472 2.47482205 5.58290472 -0.5 3.4375 C-2.98875759 2.74658685 -2.98875759 2.74658685 -5 4 C-6.32 3.01 -7.64 2.02 -9 1 C-5.66660588 -0.11113137 -3.49519344 -0.34951934 0 0 Z " fill="#BFA421" transform="translate(56,122)"/>
<path d="M0 0 C2.97 0 5.94 0 9 0 C9.25532751 3.06393013 9.21861333 4.63233212 7.625 7.3125 C6.820625 8.1478125 6.820625 8.1478125 6 9 C5.34 9 4.68 9 4 9 C4.33 6.69 4.66 4.38 5 2 C3.35 2 1.7 2 0 2 C0 1.34 0 0.68 0 0 Z " fill="#3B6DA8" transform="translate(171,114)"/>
<path d="M0 0 C0.99 0.33 1.98 0.66 3 1 C3.6875 3.0625 3.6875 3.0625 4 5 C2.71086513 5.67154933 1.41859796 6.33708859 0.125 7 C-0.59429687 7.37125 -1.31359375 7.7425 -2.0546875 8.125 C-4 9 -4 9 -6 9 C-4.47291037 5.56404834 -2.40072955 2.88087546 0 0 Z " fill="#DDB611" transform="translate(98,97)"/>
<path d="M0 0 C0.66 0 1.32 0 2 0 C2 1.65 2 3.3 2 5 C5.96 5.33 9.92 5.66 14 6 C13.67 6.66 13.34 7.32 13 8 C11.0412957 7.85923685 9.08303907 7.7122324 7.125 7.5625 C6.03445312 7.48128906 4.94390625 7.40007812 3.8203125 7.31640625 C1 7 1 7 -1 6 C-0.67 4.02 -0.34 2.04 0 0 Z " fill="#2E4877" transform="translate(103,134)"/>
<path d="M0 0 C0.33 0 0.66 0 1 0 C1.185625 1.2065625 1.185625 1.2065625 1.375 2.4375 C1.58125 3.283125 1.7875 4.12875 2 5 C4.43387753 6.21693876 6.41838846 6.31959896 9.125 6.5625 C10.03507813 6.64628906 10.94515625 6.73007813 11.8828125 6.81640625 C12.58148438 6.87699219 13.28015625 6.93757813 14 7 C10.8989862 9.06734253 9.59827423 9.36087094 6 9.6875 C4.700625 9.81705078 4.700625 9.81705078 3.375 9.94921875 C1 10 1 10 -2 9 C-1.34 6.03 -0.68 3.06 0 0 Z " fill="#3E648B" transform="translate(166,106)"/>
<path d="M0 0 C1.98 0 3.96 0 6 0 C6.8320582 5.72040011 7.12036664 11.22240116 7 17 C6.67 17 6.34 17 6 17 C5.34 12.05 4.68 7.1 4 2 C2.68 2 1.36 2 0 2 C-0.33 2.99 -0.66 3.98 -1 5 C-0.67 3.35 -0.34 1.7 0 0 Z " fill="#BFA21D" transform="translate(125,107)"/>
<path d="M0 0 C0.66 0.33 1.32 0.66 2 1 C-2.62 5.62 -7.24 10.24 -12 15 C-12.66 14.67 -13.32 14.34 -14 14 C-9.67106815 8.81580806 -5.23435005 4.27293882 0 0 Z " fill="#C71A1A" transform="translate(43,27)"/>
<path d="M0 0 C7.95467422 -0.61189802 7.95467422 -0.61189802 11.5625 1.5 C13.65742367 5.14334551 13.27769546 7.83456807 13 12 C12.67 12 12.34 12 12 12 C11.34 9.36 10.68 6.72 10 4 C6.71303767 3.20046862 5.28976808 2.90341064 2 4 C1.34 2.68 0.68 1.36 0 0 Z " fill="#B79E23" transform="translate(139,120)"/>
<path d="M0 0 C3.00092657 2.25069493 3.21031306 4.94640878 4 8.5 C3.01 8.83 2.02 9.16 1 9.5 C-2 3.75 -2 3.75 -2 1.5 C-2.66 1.17 -3.32 0.84 -4 0.5 C-2 -0.5 -2 -0.5 0 0 Z " fill="#144379" transform="translate(13,127.5)"/>
<path d="M0 0 C2.31 0.33 4.62 0.66 7 1 C6.34 1.66 5.68 2.32 5 3 C4.83322718 6.58343976 4.83322718 6.58343976 5 10 C3.68 9.67 2.36 9.34 1 9 C0.67 6.03 0.34 3.06 0 0 Z " fill="#4274AA" transform="translate(146,107)"/>
<path d="M0 0 C0.78246094 -0.01417969 1.56492187 -0.02835937 2.37109375 -0.04296875 C4.5625 0.1875 4.5625 0.1875 7.5625 2.1875 C3.9325 2.1875 0.3025 2.1875 -3.4375 2.1875 C-3.7675 3.8375 -4.0975 5.4875 -4.4375 7.1875 C-5.7575 6.1975 -7.0775 5.2075 -8.4375 4.1875 C-7.7775 4.1875 -7.1175 4.1875 -6.4375 4.1875 C-6.4375 3.1975 -6.4375 2.2075 -6.4375 1.1875 C-4.0978331 0.01766655 -2.60358473 0.0213759 0 0 Z " fill="#225690" transform="translate(113.4375,105.8125)"/>
<path d="M0 0 C0.33 0 0.66 0 1 0 C2.36363636 7.43801653 2.36363636 7.43801653 0.625 10.125 C0.08875 10.74375 -0.4475 11.3625 -1 12 C-1.72045367 15.15118325 -1.72045367 15.15118325 -2 18 C-2.33 18 -2.66 18 -3 18 C-3 16.02 -3 14.04 -3 12 C-3.66 11.67 -4.32 11.34 -5 11 C-4.34 11 -3.68 11 -3 11 C-1.38935371 7.34920174 -0.55105909 3.9492568 0 0 Z " fill="#5C7588" transform="translate(152,126)"/>
<path d="M0 0 C0 2.64 0 5.28 0 8 C-1.65 8 -3.3 8 -5 8 C-5.25 5.6875 -5.25 5.6875 -5 3 C-1.79310345 0 -1.79310345 0 0 0 Z " fill="#FAC806" transform="translate(155,136)"/>
<path d="M0 0 C0.66 0.33 1.32 0.66 2 1 C1.01 1.66 0.02 2.32 -1 3 C-0.34 3.66 0.32 4.32 1 5 C0.01 5.33 -0.98 5.66 -2 6 C-2.33 5.01 -2.66 4.02 -3 3 C-5.97 3 -8.94 3 -12 3 C-12 3.66 -12 4.32 -12 5 C-13.32 4.34 -14.64 3.68 -16 3 C-13.47121711 1.73560855 -11.37987873 1.70952617 -8.5625 1.5 C-5.43691282 1.26693358 -2.98575171 0.99525057 0 0 Z " fill="#5E7785" transform="translate(102,130)"/>
<path d="M0 0 C0 1.98 0 3.96 0 6 C-1.66666667 6 -3.33333333 6 -5 6 C-5.33 4.02 -5.66 2.04 -6 0 C-3 -1 -3 -1 0 0 Z " fill="#7D93A5" transform="translate(35,120)"/>
<path d="M0 0 C2.475 0.495 2.475 0.495 5 1 C4.37240135 3.92879371 3.41377341 6.36095629 2 9 C1.34 9 0.68 9 0 9 C0 6.03 0 3.06 0 0 Z " fill="#46759D" transform="translate(67,108)"/>
<path d="M0 0 C0.66 0.33 1.32 0.66 2 1 C2 6.28 2 11.56 2 17 C2.66 17.33 3.32 17.66 4 18 C2.35 18.33 0.7 18.66 -1 19 C-0.83628906 18.49984375 -0.67257813 17.9996875 -0.50390625 17.484375 C0.1878911 14.0736532 0.10504665 10.71264243 0.0625 7.25 C0.05573242 6.20392578 0.05573242 6.20392578 0.04882812 5.13671875 C0.0371002 3.42444197 0.01916653 1.71220967 0 0 Z " fill="#617383" transform="translate(157,133)"/>
<path d="M0 0 C3.41529114 0.2846076 4.78498424 0.79660671 7.3125 3.1875 C9.25629673 6.42716122 9.34530062 8.28801837 9 12 C8.773125 11.443125 8.54625 10.88625 8.3125 10.3125 C6.6407496 7.36703501 4.41718785 5.35675815 2 3 C1.34 2.01 0.68 1.02 0 0 Z " fill="#B59B20" transform="translate(32,110)"/>
<path d="M0 0 C0.90492187 0.02320313 1.80984375 0.04640625 2.7421875 0.0703125 C4.10730469 0.09738281 4.10730469 0.09738281 5.5 0.125 C6.19867188 0.14820313 6.89734375 0.17140625 7.6171875 0.1953125 C7.6171875 0.8553125 7.6171875 1.5153125 7.6171875 2.1953125 C6.6271875 3.1853125 5.6371875 4.1753125 4.6171875 5.1953125 C1.6471875 4.2053125 -1.3228125 3.2153125 -4.3828125 2.1953125 C-2.3828125 0.1953125 -2.3828125 0.1953125 0 0 Z " fill="#375897" transform="translate(46.3828125,142.8046875)"/>
<path d="M0 0 C0.66 0 1.32 0 2 0 C2.70226141 1.24176695 3.38629109 2.49385599 4.0625 3.75 C4.44535156 4.44609375 4.82820312 5.1421875 5.22265625 5.859375 C6 8 6 8 5 12 C3.02 8.37 1.04 4.74 -1 1 C-0.67 0.67 -0.34 0.34 0 0 Z " fill="#030811" transform="translate(9,129)"/>
<path d="M0 0 C0.66 0.66 1.32 1.32 2 2 C-2.30769231 6.92307692 -2.30769231 6.92307692 -5.8125 7.3125 C-6.8953125 7.1578125 -6.8953125 7.1578125 -8 7 C-8 6.34 -8 5.68 -8 5 C-2.25 2 -2.25 2 0 2 C0 1.34 0 0.68 0 0 Z " fill="#DEE4E8" transform="translate(106,101)"/>
<path d="M0 0 C-0.66 1.32 -1.32 2.64 -2 4 C-3.65 3.67 -5.3 3.34 -7 3 C-6.67 2.01 -6.34 1.02 -6 0 C-3.50907189 -1.24546405 -2.58919267 -0.7767578 0 0 Z " fill="#F6C608" transform="translate(148,123)"/>
<path d="M0 0 C1.31223496 3.93670488 0.24296256 6.12488144 -1 10 C-1.103125 9.360625 -1.20625 8.72125 -1.3125 8.0625 C-1.539375 7.381875 -1.76625 6.70125 -2 6 C-2.99 5.67 -3.98 5.34 -5 5 C-3.35 3.35 -1.7 1.7 0 0 Z " fill="#3469AE" transform="translate(83,115)"/>
<path d="M0 0 C0.33 0.66 0.66 1.32 1 2 C0.01 2.495 0.01 2.495 -1 3 C-0.67 3.66 -0.34 4.32 0 5 C-1.32 5 -2.64 5 -4 5 C-4 5.99 -4 6.98 -4 8 C-4.66 8 -5.32 8 -6 8 C-6 6.68 -6 5.36 -6 4 C-6.66 3.67 -7.32 3.34 -8 3 C-5.36 2.01 -2.72 1.02 0 0 Z " fill="#497BAE" transform="translate(60,105)"/>
<path d="M0 0 C0.33 0 0.66 0 1 0 C0.67 2.97 0.34 5.94 0 9 C-0.99 9 -1.98 9 -3 9 C-2.25 2.25 -2.25 2.25 0 0 Z " fill="#275795" transform="translate(60,139)"/>
<path d="M0 0 C0.33 0.99 0.66 1.98 1 3 C2.98 3 4.96 3 7 3 C7.33 3.66 7.66 4.32 8 5 C3.545 5.495 3.545 5.495 -1 6 C-0.67 4.02 -0.34 2.04 0 0 Z " fill="#3A5FA7" transform="translate(61,141)"/>
<path d="M0 0 C2.95409701 1.37154504 5.44008376 2.98863724 8 5 C7.67 5.99 7.34 6.98 7 8 C4.36 6.02 1.72 4.04 -1 2 C-0.67 1.34 -0.34 0.68 0 0 Z " fill="#C2A218" transform="translate(74,108)"/>
<path d="M0 0 C1.5 1.375 1.5 1.375 3 3 C3 3.66 3 4.32 3 5 C3.66 5.33 4.32 5.66 5 6 C3.68 6.33 2.36 6.66 1 7 C0.01 5.35 -0.98 3.7 -2 2 C-1.34 2 -0.68 2 0 2 C0 1.34 0 0.68 0 0 Z " fill="#4B6A95" transform="translate(40,137)"/>
<path d="M0 0 C0.66 0.33 1.32 0.66 2 1 C2 1.99 2 2.98 2 4 C0.02 4.66 -1.96 5.32 -4 6 C-4.66 5.34 -5.32 4.68 -6 4 C-5.360625 3.87625 -4.72125 3.7525 -4.0625 3.625 C-3.0415625 3.315625 -3.0415625 3.315625 -2 3 C-1.67 2.34 -1.34 1.68 -1 1 C-0.67 0.67 -0.34 0.34 0 0 Z " fill="#5385AD" transform="translate(104,99)"/>
<path d="M0 0 C2 2 2 2 2 5 C2.99 5.33 3.98 5.66 5 6 C3.02 6.33 1.04 6.66 -1 7 C-0.67 4.69 -0.34 2.38 0 0 Z " fill="#2E4877" transform="translate(123,140)"/>
<path d="M0 0 C1.7492214 -0.08142927 3.49954542 -0.13938541 5.25 -0.1875 C6.22453125 -0.22230469 7.1990625 -0.25710937 8.203125 -0.29296875 C11.37468742 0.03924798 12.67040307 0.88672279 15 3 C14.67 3.66 14.34 4.32 14 5 C13.17242187 4.27876953 13.17242187 4.27876953 12.328125 3.54296875 C9.63856507 1.76045839 7.94178582 1.52248591 4.75 1.3125 C3.85796875 1.24675781 2.9659375 1.18101563 2.046875 1.11328125 C1.03367187 1.05720703 1.03367187 1.05720703 0 1 C0 0.67 0 0.34 0 0 Z " fill="#BD9F19" transform="translate(90,111)"/>
<path d="M0 0 C0.66 0.66 1.32 1.32 2 2 C0.73608512 3.00873016 -0.53640883 4.00671822 -1.8125 5 C-2.87404297 5.8353125 -2.87404297 5.8353125 -3.95703125 6.6875 C-6 8 -6 8 -9 8 C-7.87811441 6.85111717 -6.75238316 5.70598863 -5.625 4.5625 C-4.99851562 3.92441406 -4.37203125 3.28632812 -3.7265625 2.62890625 C-2 1 -2 1 0 0 Z " fill="#1D5283" transform="translate(99,92)"/>
<path d="M0 0 C2 0 2 0 3.5 1.375 C3.995 1.91125 4.49 2.4475 5 3 C5.66 3.66 6.32 4.32 7 5 C6 6 6 6 3.4375 6.0625 C2.2309375 6.0315625 2.2309375 6.0315625 1 6 C0.67 4.02 0.34 2.04 0 0 Z " fill="#385E9D" transform="translate(104,133)"/>
<path d="M0 0 C0.33 0 0.66 0 1 0 C1.36625971 4.51720311 1.36625971 4.51720311 -0.375 6.8125 C-2 8 -2 8 -4 8 C-4 6.35 -4 4.7 -4 3 C-3.01 3 -2.02 3 -1 3 C-0.67 2.01 -0.34 1.02 0 0 Z " fill="#416AA6" transform="translate(33,122)"/>
<path d="M0 0 C2.5 0.9375 2.5 0.9375 5 3 C5.45787911 6.03816258 5.28780586 8.94925785 5 12 C4.67 12 4.34 12 4 12 C3.71125 10.7625 3.4225 9.525 3.125 8.25 C2.38665206 5.27551258 1.55525067 2.666144 0 0 Z " fill="#B89B1C" transform="translate(56,123)"/>
<path d="M0 0 C4.455 1.98 4.455 1.98 9 4 C9 4.33 9 4.66 9 5 C5.625 4.75 5.625 4.75 2 4 C1.34 2.68 0.68 1.36 0 0 Z " fill="#1F487D" transform="translate(72,136)"/>
<path d="M0 0 C1.41377341 2.63904371 2.37240135 5.07120629 3 8 C2.01 8 1.02 8 0 8 C-0.38063221 5.6739143 -0.71269945 3.33944736 -1 1 C-0.67 0.67 -0.34 0.34 0 0 Z " fill="#194A81" transform="translate(36,134)"/>
<path d="M0 0 C2.86724686 0.57344937 3.8614515 0.8614515 6 3 C1.545 3.495 1.545 3.495 -3 4 C-2.67 3.34 -2.34 2.68 -2 2 C-1.34 2 -0.68 2 0 2 C0 1.34 0 0.68 0 0 Z " fill="#366CA1" transform="translate(61,105)"/>
<path d="M0 0 C0.66 0.33 1.32 0.66 2 1 C-2 7.57142857 -2 7.57142857 -6 9 C-4.47291037 5.56404834 -2.40072955 2.88087546 0 0 Z " fill="#D8B820" transform="translate(98,97)"/>
<path d="M0 0 C0.33 0 0.66 0 1 0 C1.33 1.98 1.66 3.96 2 6 C3.65 6.33 5.3 6.66 7 7 C4 9 4 9 1.8125 8.625 C1.214375 8.41875 0.61625 8.2125 0 8 C0 5.36 0 2.72 0 0 Z " fill="#557EA9" transform="translate(43,115)"/>
<path d="M0 0 C2.96175123 0.61277612 4.38058783 1.25372522 7 3 C3.7 3.33 0.4 3.66 -3 4 C-2.01 2.68 -1.02 1.36 0 0 Z " fill="#517BA8" transform="translate(139,117)"/>
<path d="M0 0 C0.33 0.99 0.66 1.98 1 3 C1.66 3 2.32 3 3 3 C3 4.65 3 6.3 3 8 C1.68 7.34 0.36 6.68 -1 6 C-0.67 4.02 -0.34 2.04 0 0 Z " fill="#356DAE" transform="translate(56,110)"/>
<path d="M0 0 C0.33 0 0.66 0 1 0 C1.66 1.98 2.32 3.96 3 6 C4.65 6.33 6.3 6.66 8 7 C8 7.33 8 7.66 8 8 C5.66705225 8.04241723 3.33297433 8.04092937 1 8 C0 7 0 7 -0.0625 3.4375 C-0.041875 2.303125 -0.02125 1.16875 0 0 Z " fill="#AC962B" transform="translate(46,127)"/>
<path d="M0 0 C0.33 0 0.66 0 1 0 C1.9765625 6.0546875 1.9765625 6.0546875 2 8 C1.34 8.66 0.68 9.32 0 10 C-0.66 9.67 -1.32 9.34 -2 9 C-1.34 6.03 -0.68 3.06 0 0 Z " fill="#5C7885" transform="translate(132,118)"/>
<path d="M0 0 C0.33 1.32 0.66 2.64 1 4 C1.66 4 2.32 4 3 4 C3 4.99 3 5.98 3 7 C1.68 6.67 0.36 6.34 -1 6 C-0.67 4.02 -0.34 2.04 0 0 Z " fill="#336BAD" transform="translate(148,110)"/>
<path d="M0 0 C-0.33 0.99 -0.66 1.98 -1 3 C-4.0625 4.1875 -4.0625 4.1875 -7 5 C-5.22678182 1.07358831 -4.52021524 0 0 0 Z " fill="#346FAE" transform="translate(16,108)"/>
</svg>
